<?xml version="1.0" encoding="utf-8"?>
<!-- Generator: Adobe Illustrator 24.0.0, SVG Export Plug-In . SVG Version: 6.00 Build 0)  -->
<svg version="1.1" id="Layer_1" xmlns="http://www.w3.org/2000/svg" xmlns:xlink="http://www.w3.org/1999/xlink" x="0px" y="0px"
	 viewBox="0 0 225 225" style="enable-background:new 0 0 225 225;" xml:space="preserve">
<style type="text/css">
	.st0{fill:#FFFFFF;}
</style>
<g id="Ebene_2_1_">
	<g id="Ebene_1-2">
		<g id="Ebene_2-2">
			<g id="Ebene_6">
				<path className="st0" d="M112.5,49.1c35,0,63.4,28.5,63.4,63.5c0,35-28.5,63.4-63.5,63.4c-35,0-63.4-28.4-63.4-63.4
					C49.1,77.5,77.4,49.1,112.5,49.1 M112.5,25.7c-47.9,0-86.8,38.8-86.8,86.8s38.8,86.8,86.8,86.8s86.8-38.8,86.8-86.8l0,0
					C199.3,64.6,160.4,25.8,112.5,25.7L112.5,25.7z"/>
				<path className="st0" d="M112.5,153.6c-17.4-0.1-32.8-11.1-38.5-27.5h77.1C145.4,142.5,129.9,153.5,112.5,153.6L112.5,153.6z"/>
				<polygon className="st0" points="182.2,156.4 199.3,199.3 157.3,184 				"/>
			</g>
		</g>
	</g>
</g>
</svg>
