<?xml version="1.0" encoding="utf-8"?>
<!-- Generator: Adobe Illustrator 24.0.0, SVG Export Plug-In . SVG Version: 6.00 Build 0)  -->
<svg version="1.1" id="Layer_1" xmlns="http://www.w3.org/2000/svg" xmlns:xlink="http://www.w3.org/1999/xlink" x="0px" y="0px"
	 viewBox="0 0 225 225" style="enable-background:new 0 0 225 225;" xml:space="preserve">
<style type="text/css">
	.st0{fill:#EA0000;}
</style>
<g id="Ebene_2_1_">
	<g id="Ebene_1-2">
		<g id="Ebene_2-2">
			<g id="Ebene_6">
				<path className="st0" d="M112.5,48.9c35.1,0,63.6,28.5,63.5,63.7c0,35.1-28.5,63.6-63.7,63.5c-35.1,0-63.5-28.5-63.5-63.6
					C48.9,77.4,77.4,48.9,112.5,48.9 M112.5,25.5c-48.1,0-87,39-87,87s39,87,87,87s87-39,87-87l0,0
					C199.5,64.5,160.6,25.5,112.5,25.5L112.5,25.5z"/>
				<path d="M112.5,153.7c-17.4-0.1-32.9-11.1-38.7-27.6h77.3C145.5,142.6,130,153.6,112.5,153.7L112.5,153.7z"/>
				<polygon className="st0" points="182.4,156.6 199.5,199.5 157.4,184.1 				"/>
			</g>
		</g>
	</g>
</g>
</svg>
